<?xml version="1.0" encoding="UTF-8" standalone="no"?>
<svg
   xmlns:dc="http://purl.org/dc/elements/1.1/"
   xmlns:cc="http://creativecommons.org/ns#"
   xmlns:rdf="http://www.w3.org/1999/02/22-rdf-syntax-ns#"
   xmlns:svg="http://www.w3.org/2000/svg"
   xmlns="http://www.w3.org/2000/svg"
   xmlns:sodipodi="http://sodipodi.sourceforge.net/DTD/sodipodi-0.dtd"
   xmlns:inkscape="http://www.inkscape.org/namespaces/inkscape"
   version="1.0"
   width="719.000000pt"
   height="719.000000pt"
   viewBox="0 0 719.000000 719.000000"
   preserveAspectRatio="xMidYMid meet"
   id="svg22"
   sodipodi:docname="HáLugar - Logotipo.svg"
   inkscape:version="0.92.3 (2405546, 2018-03-11)">
  <defs
     id="defs26" />
  <sodipodi:namedview
     pagecolor="#ffffff"
     bordercolor="#666666"
     borderopacity="1"
     objecttolerance="10"
     gridtolerance="10"
     guidetolerance="10"
     inkscape:pageopacity="0"
     inkscape:pageshadow="2"
     inkscape:window-width="1366"
     inkscape:window-height="706"
     id="namedview24"
     showgrid="false"
     inkscape:zoom="0.34814437"
     inkscape:cx="983.28793"
     inkscape:cy="664.68071"
     inkscape:window-x="0"
     inkscape:window-y="0"
     inkscape:window-maximized="1"
     inkscape:current-layer="svg22" />
  <metadata
     id="metadata2">
Created by potrace 1.15, written by Peter Selinger 2001-2017
<rdf:RDF>
  <cc:Work
     rdf:about="">
    <dc:format>image/svg+xml</dc:format>
    <dc:type
       rdf:resource="http://purl.org/dc/dcmitype/StillImage" />
  </cc:Work>
</rdf:RDF>
</metadata>
  <g
     transform="translate(0.000000,719.000000) scale(0.100000,-0.100000)"
     fill="#000000"
     stroke="none"
     id="g20"
     style="fill:#5c007e;fill-opacity:1">
    <path
       d="M3530 6979 c-19 -17 -102 -91 -185 -164 -166 -147 -458 -405 -694 -614 -85 -75 -202 -179 -261 -231 -58 -52 -214 -189 -345 -305 -131 -115 -287 -253 -345 -305 -59 -52 -160 -142 -226 -200 -151 -133 -176 -155 -249 -221 -34 -30 -109 -96 -168 -148 -59 -52 -107 -97 -107 -99 0 -3 35 -44 78 -91 43 -47 102 -114 131 -148 l54 -63 26 19 c14 11 80 68 147 128 154 138 776 688 823 728 19 17 83 73 141 125 58 52 218 194 355 315 137 121 295 261 350 310 99 88 272 240 364 320 25 22 72 64 103 94 l57 53 78 -70 c200 -179 311 -277 448 -397 82 -71 177 -155 210 -185 34 -30 132 -118 220 -195 87 -77 204 -180 259 -230 102 -91 155 -138 391 -345 72 -63 135 -119 141 -125 6 -5 82 -73 169 -150 87 -77 206 -183 264 -235 59 -52 125 -110 147 -127 l41 -33 54 63 c29 34 88 101 131 148 43 47 78 88 78 91 0 2 -48 47 -107 99 -59 52 -132 117 -163 144 -31 28 -92 82 -135 120 -44 39 -105 93 -136 120 -30 28 -123 109 -205 182 -158 139 -489 432 -614 542 -41 36 -100 89 -130 116 -31 28 -127 113 -215 190 -87 77 -184 163 -215 190 -31 28 -127 113 -215 190 -87 77 -204 181 -259 230 -162 145 -223 195 -237 195 -8 0 -30 -14 -49 -31z"
       id="path4"
       style="fill:#5c007e;fill-opacity:1" />
    <path
       d="m 3469,6018 c -121,-107 -269,-237 -285,-252 -6,-6 -60,-54 -119,-106 -60,-52 -215,-189 -344,-304 -130,-115 -285,-252 -345,-305 -125,-109 -241,-212 -479,-424 L 1730,4478 V 3304 c 0,-1296 -3,-1226 63,-1257 32,-16 170,-17 1787,-17 1617,0 1755,1 1787,17 67,31 63,-39 62,1260 l -1,1178 -160,140 c -88,77 -211,185 -272,240 -62,55 -162,143 -222,196 -114,100 -483,427 -739,654 -323,286 -448,395 -454,395 -3,0 -54,-42 -112,-92 z M 4483,3656 c -99.2949,-60.2424 -329.5775,-195.2529 -399,-234 36.2522,72.1825 76.5215,158.5031 120,248 49.3703,-1.9444 181.246,-7.3703 279,-14 z m -1665,-8 c 9,-9 12,-82 12,-265 v -253 h 125 125 v 247 c 0,215 2,249 17,265 15,16 35,18 213,18 139,0 199,-3 208,-12 17,-17 17,-1349 0,-1366 -9,-9 -69,-12 -207,-12 -167,0 -197,2 -213,17 -17,15 -18,39 -18,335 v 318 h -125 -125 v -323 c 0,-238 -3,-326 -12,-335 -9,-9 -69,-12 -207,-12 -167,0 -197,2 -213,17 -17,15 -18,49 -18,676 0,601 2,662 17,679 15,16 35,18 213,18 139,0 199,-3 208,-12 z m 1567,-353 c 106,-22 173,-61 210,-119 l 30,-49 3,-353 c 3,-379 5,-389 52,-364 33,18 56,3 79,-52 25,-60 27,-58 -74,-91 -56,-17 -93,-22 -185,-22 -124,0 -155,9 -212,63 l -28,26 -23,-22 c -12,-11 -45,-31 -72,-44 -43,-20 -66,-23 -160,-23 -95,0 -117,3 -163,24 -172,78 -217,324 -86,470 58,64 104,92 237,140 187,68 244,116 232,196 -3,22 -13,50 -20,62 -35,52 -176,54 -227,3 -23,-24 -28,-37 -28,-79 0,-27 5,-62 11,-77 7,-20 7,-34 -1,-49 -11,-21 -12,-21 -100,-5 -48,10 -93,20 -99,24 -16,10 -14,150 2,189 17,40 84,101 134,123 102,43 351,58 488,29 z"
       id="path6"
       style="fill:#5c007e;fill-opacity:1"
       inkscape:connector-curvature="0"
       sodipodi:nodetypes="cccccccscscccscccscccccsscccsssssscscccssscscsscccccccsccccsccccccsccccccc" />
    <path
       d="M4174 2781 c-55 -39 -71 -63 -86 -129 -14 -65 1 -195 26 -220 24 -24 67 -5 89 39 15 31 17 60 15 189 l-3 151 -41 -30z"
       id="path8"
       style="fill:#5c007e;fill-opacity:1" />
    <path
       d="M952 1898 c-19 -19 -17 -1331 2 -1347 9 -8 146 -10 487 -9 l474 3 0 80 0 80 -267 3 -268 2 0 588 c0 444 -3 591 -12 600 -17 17 -399 17 -416 0z"
       id="path10"
       style="fill:#5c007e;fill-opacity:1" />
    <path
       d="M3835 1801 c-23 -10 -53 -32 -67 -49 -24 -28 -48 -105 -48 -150 0 -15 -11 -17 -105 -14 -86 3 -118 0 -175 -17 -137 -42 -242 -140 -276 -259 -34 -117 6 -251 97 -320 26 -20 48 -39 48 -42 1 -3 -19 -18 -44 -33 -99 -63 -158 -173 -136 -254 11 -39 42 -75 94 -108 l28 -18 -41 -24 c-49 -29 -70 -67 -70 -126 0 -85 74 -150 204 -178 94 -21 439 -19 541 4 249 54 369 215 309 416 -20 69 -69 121 -146 157 l-63 29 -263 1 c-286 1 -304 4 -260 51 20 21 25 22 152 16 103 -4 144 -2 193 10 125 32 227 104 281 196 24 41 27 56 27 136 0 97 -9 124 -67 197 -24 31 -131 111 -162 121 -5 2 -7 11 -3 20 6 15 10 15 48 2 119 -42 199 0 199 105 0 100 -62 150 -186 150 -45 0 -83 -7 -109 -19z m-176 -370 c30 -30 43 -95 44 -216 0 -155 -31 -218 -93 -185 -37 20 -53 75 -54 190 0 118 16 193 48 215 27 19 32 19 55 -4z m159 -984 c51 -17 64 -43 34 -67 -39 -32 -100 -43 -237 -44 -110 0 -136 3 -170 19 -78 39 -50 87 61 105 72 11 263 3 312 -13z"
       id="path12"
       style="fill:#5c007e;fill-opacity:1" />
    <path
       d="M2235 1578 c-60 -4 -138 -11 -172 -14 l-63 -6 0 -417 c0 -469 2 -483 70 -551 54 -54 120 -73 229 -68 97 5 171 32 234 88 l37 32 0 -39 c0 -21 5 -44 12 -51 17 -17 369 -17 386 0 9 9 12 137 12 513 0 473 -1 501 -18 512 -18 10 -75 8 -329 -13 l-62 -5 -4 -347 c-2 -258 -7 -357 -17 -384 -27 -74 -92 -123 -130 -98 -13 8 -15 68 -18 421 -2 279 -6 417 -14 426 -6 7 -18 12 -27 12 -9 -1 -65 -6 -126 -11z"
       id="path14"
       style="fill:#5c007e;fill-opacity:1" />
    <path
       d="M4570 1574 c-94 -20 -168 -61 -205 -112 -27 -40 -30 -52 -33 -137 l-4 -93 54 -11 c144 -30 148 -30 159 -10 7 13 7 31 -1 57 -22 81 -5 148 45 170 70 32 172 21 199 -21 24 -37 29 -91 12 -125 -21 -40 -90 -84 -184 -117 -205 -72 -292 -136 -332 -243 -41 -108 -14 -257 60 -329 64 -63 111 -77 245 -78 107 0 125 3 165 24 25 13 55 33 68 44 l22 21 28 -26 c57 -54 88 -63 212 -63 92 0 129 5 185 22 100 32 99 32 79 84 -25 66 -37 76 -76 61 -58 -22 -58 -24 -58 342 0 208 -4 346 -11 371 -24 87 -98 143 -228 171 -85 18 -315 17 -401 -2z m216 -819 c-15 -35 -53 -59 -80 -49 -34 13 -55 139 -37 224 14 63 40 103 90 134 l36 23 3 -148 c2 -113 -1 -157 -12 -184z"
       id="path16"
       style="fill:#5c007e;fill-opacity:1" />
    <path
       d="M5725 1579 c-33 -5 -112 -12 -175 -16 l-115 -8 0 -505 0 -505 184 -3 c127 -2 188 1 197 9 11 9 14 71 14 330 0 327 6 391 41 461 24 46 35 54 48 29 8 -14 5 -39 -10 -96 -27 -106 -28 -105 135 -105 l132 0 17 73 c52 220 -10 347 -168 347 -49 0 -70 -6 -113 -31 -29 -16 -56 -37 -59 -44 -10 -26 -23 -16 -23 18 0 33 -15 58 -34 56 -6 -1 -38 -5 -71 -10z"
       id="path18"
       style="fill:#5c007e;fill-opacity:1" />
  </g>
</svg>
